<mxfile host="app.diagrams.net" modified="2021-11-19T08:30:05.046Z" agent="5.0 (Windows NT 10.0; Win64; x64) AppleWebKit/537.36 (KHTML, like Gecko) Chrome/95.0.4638.69 Safari/537.36" etag="ILrYqwLXu42xI56H9B8Z" version="15.8.2" type="github">
  <diagram id="gecN1UcChAeBymGNtbon" name="Page-1">
    <mxGraphModel dx="1422" dy="794" grid="1" gridSize="10" guides="1" tooltips="1" connect="1" arrows="1" fold="1" page="1" pageScale="1" pageWidth="850" pageHeight="1100" math="0" shadow="0">
      <root>
        <mxCell id="0" />
        <mxCell id="1" parent="0" />
        <mxCell id="jwajZKRLYiDn73fIpxVP-8" value="HAYVANLAR" style="swimlane;fontStyle=1;align=center;verticalAlign=top;childLayout=stackLayout;horizontal=1;startSize=26;horizontalStack=0;resizeParent=1;resizeParentMax=0;resizeLast=0;collapsible=1;marginBottom=0;" vertex="1" parent="1">
          <mxGeometry x="320" y="20" width="170" height="150" as="geometry" />
        </mxCell>
        <mxCell id="jwajZKRLYiDn73fIpxVP-9" value="+Agirlik:Double&#xa;+Yasi: İnt" style="text;strokeColor=none;fillColor=none;align=left;verticalAlign=top;spacingLeft=4;spacingRight=4;overflow=hidden;rotatable=0;points=[[0,0.5],[1,0.5]];portConstraint=eastwest;" vertex="1" parent="jwajZKRLYiDn73fIpxVP-8">
          <mxGeometry y="26" width="170" height="54" as="geometry" />
        </mxCell>
        <mxCell id="jwajZKRLYiDn73fIpxVP-10" value="" style="line;strokeWidth=1;fillColor=none;align=left;verticalAlign=middle;spacingTop=-1;spacingLeft=3;spacingRight=3;rotatable=0;labelPosition=right;points=[];portConstraint=eastwest;" vertex="1" parent="jwajZKRLYiDn73fIpxVP-8">
          <mxGeometry y="80" width="170" height="8" as="geometry" />
        </mxCell>
        <mxCell id="jwajZKRLYiDn73fIpxVP-11" value="+getFeedSchedule() :Double&#xa;+getDosage ():int" style="text;strokeColor=none;fillColor=none;align=left;verticalAlign=top;spacingLeft=4;spacingRight=4;overflow=hidden;rotatable=0;points=[[0,0.5],[1,0.5]];portConstraint=eastwest;" vertex="1" parent="jwajZKRLYiDn73fIpxVP-8">
          <mxGeometry y="88" width="170" height="62" as="geometry" />
        </mxCell>
        <mxCell id="jwajZKRLYiDn73fIpxVP-25" style="edgeStyle=orthogonalEdgeStyle;rounded=0;orthogonalLoop=1;jettySize=auto;html=1;entryX=0;entryY=0.5;entryDx=0;entryDy=0;" edge="1" parent="1" source="jwajZKRLYiDn73fIpxVP-12" target="jwajZKRLYiDn73fIpxVP-9">
          <mxGeometry relative="1" as="geometry" />
        </mxCell>
        <mxCell id="jwajZKRLYiDn73fIpxVP-12" value="Kedigiller" style="swimlane;fontStyle=1;align=center;verticalAlign=top;childLayout=stackLayout;horizontal=1;startSize=26;horizontalStack=0;resizeParent=1;resizeParentMax=0;resizeLast=0;collapsible=1;marginBottom=0;" vertex="1" parent="1">
          <mxGeometry x="40" y="260" width="160" height="140" as="geometry" />
        </mxCell>
        <mxCell id="jwajZKRLYiDn73fIpxVP-13" value="+Ses:Double" style="text;strokeColor=none;fillColor=none;align=left;verticalAlign=top;spacingLeft=4;spacingRight=4;overflow=hidden;rotatable=0;points=[[0,0.5],[1,0.5]];portConstraint=eastwest;" vertex="1" parent="jwajZKRLYiDn73fIpxVP-12">
          <mxGeometry y="26" width="160" height="26" as="geometry" />
        </mxCell>
        <mxCell id="jwajZKRLYiDn73fIpxVP-14" value="" style="line;strokeWidth=1;fillColor=none;align=left;verticalAlign=middle;spacingTop=-1;spacingLeft=3;spacingRight=3;rotatable=0;labelPosition=right;points=[];portConstraint=eastwest;" vertex="1" parent="jwajZKRLYiDn73fIpxVP-12">
          <mxGeometry y="52" width="160" height="8" as="geometry" />
        </mxCell>
        <mxCell id="jwajZKRLYiDn73fIpxVP-15" value="+getFeedSchedule() :Double&#xa;+getDosage ():int&#xa;+Kaplanlar():Void&#xa;+Aslanlar():Void&#xa;" style="text;strokeColor=none;fillColor=none;align=left;verticalAlign=top;spacingLeft=4;spacingRight=4;overflow=hidden;rotatable=0;points=[[0,0.5],[1,0.5]];portConstraint=eastwest;" vertex="1" parent="jwajZKRLYiDn73fIpxVP-12">
          <mxGeometry y="60" width="160" height="80" as="geometry" />
        </mxCell>
        <mxCell id="jwajZKRLYiDn73fIpxVP-28" style="edgeStyle=orthogonalEdgeStyle;rounded=0;orthogonalLoop=1;jettySize=auto;html=1;entryX=0.476;entryY=1.016;entryDx=0;entryDy=0;entryPerimeter=0;" edge="1" parent="1" source="jwajZKRLYiDn73fIpxVP-16" target="jwajZKRLYiDn73fIpxVP-11">
          <mxGeometry relative="1" as="geometry" />
        </mxCell>
        <mxCell id="jwajZKRLYiDn73fIpxVP-16" value="Atlar" style="swimlane;fontStyle=1;align=center;verticalAlign=top;childLayout=stackLayout;horizontal=1;startSize=26;horizontalStack=0;resizeParent=1;resizeParentMax=0;resizeLast=0;collapsible=1;marginBottom=0;" vertex="1" parent="1">
          <mxGeometry x="320" y="260" width="160" height="140" as="geometry" />
        </mxCell>
        <mxCell id="jwajZKRLYiDn73fIpxVP-17" value="+Hız:string" style="text;strokeColor=none;fillColor=none;align=left;verticalAlign=top;spacingLeft=4;spacingRight=4;overflow=hidden;rotatable=0;points=[[0,0.5],[1,0.5]];portConstraint=eastwest;" vertex="1" parent="jwajZKRLYiDn73fIpxVP-16">
          <mxGeometry y="26" width="160" height="26" as="geometry" />
        </mxCell>
        <mxCell id="jwajZKRLYiDn73fIpxVP-18" value="" style="line;strokeWidth=1;fillColor=none;align=left;verticalAlign=middle;spacingTop=-1;spacingLeft=3;spacingRight=3;rotatable=0;labelPosition=right;points=[];portConstraint=eastwest;" vertex="1" parent="jwajZKRLYiDn73fIpxVP-16">
          <mxGeometry y="52" width="160" height="8" as="geometry" />
        </mxCell>
        <mxCell id="jwajZKRLYiDn73fIpxVP-19" value="+getFeedSchedule() :Double&#xa;+getDosage ():int&#xa;+Zebralar():Void&#xa;+Eşekler():Void&#xa;" style="text;strokeColor=none;fillColor=none;align=left;verticalAlign=top;spacingLeft=4;spacingRight=4;overflow=hidden;rotatable=0;points=[[0,0.5],[1,0.5]];portConstraint=eastwest;" vertex="1" parent="jwajZKRLYiDn73fIpxVP-16">
          <mxGeometry y="60" width="160" height="80" as="geometry" />
        </mxCell>
        <mxCell id="jwajZKRLYiDn73fIpxVP-29" style="edgeStyle=orthogonalEdgeStyle;rounded=0;orthogonalLoop=1;jettySize=auto;html=1;entryX=1;entryY=0.5;entryDx=0;entryDy=0;" edge="1" parent="1" source="jwajZKRLYiDn73fIpxVP-20" target="jwajZKRLYiDn73fIpxVP-9">
          <mxGeometry relative="1" as="geometry" />
        </mxCell>
        <mxCell id="jwajZKRLYiDn73fIpxVP-20" value="Kemirgenler" style="swimlane;fontStyle=1;align=center;verticalAlign=top;childLayout=stackLayout;horizontal=1;startSize=26;horizontalStack=0;resizeParent=1;resizeParentMax=0;resizeLast=0;collapsible=1;marginBottom=0;" vertex="1" parent="1">
          <mxGeometry x="660" y="260" width="160" height="170" as="geometry" />
        </mxCell>
        <mxCell id="jwajZKRLYiDn73fIpxVP-21" value="+Renk:String" style="text;strokeColor=none;fillColor=none;align=left;verticalAlign=top;spacingLeft=4;spacingRight=4;overflow=hidden;rotatable=0;points=[[0,0.5],[1,0.5]];portConstraint=eastwest;" vertex="1" parent="jwajZKRLYiDn73fIpxVP-20">
          <mxGeometry y="26" width="160" height="26" as="geometry" />
        </mxCell>
        <mxCell id="jwajZKRLYiDn73fIpxVP-22" value="" style="line;strokeWidth=1;fillColor=none;align=left;verticalAlign=middle;spacingTop=-1;spacingLeft=3;spacingRight=3;rotatable=0;labelPosition=right;points=[];portConstraint=eastwest;" vertex="1" parent="jwajZKRLYiDn73fIpxVP-20">
          <mxGeometry y="52" width="160" height="8" as="geometry" />
        </mxCell>
        <mxCell id="jwajZKRLYiDn73fIpxVP-23" value="+getFeedSchedule() :Double&#xa;+getDosage ():int&#xa;+Kunduzlar():Void&#xa;+Sicanlar():Void&#xa;" style="text;strokeColor=none;fillColor=none;align=left;verticalAlign=top;spacingLeft=4;spacingRight=4;overflow=hidden;rotatable=0;points=[[0,0.5],[1,0.5]];portConstraint=eastwest;" vertex="1" parent="jwajZKRLYiDn73fIpxVP-20">
          <mxGeometry y="60" width="160" height="110" as="geometry" />
        </mxCell>
      </root>
    </mxGraphModel>
  </diagram>
</mxfile>
